<svg enable-background="new 0 0 867.5 144" viewBox="0 0 867.5 144" xmlns="http://www.w3.org/2000/svg"><g fill="#771b61"><path d="m421.6 33.3h9v12.2h11.6v-12.2h9v32.5h-9v-12.3h-11.6v12.4h-9z"/><path d="m457.2 33.3h9v32.5h-9z"/><path d="m472.2 33.3h9v24.6h15.7v7.9h-24.7z"/><path d="m500.8 33.3h9v24.6h15.7v7.9h-24.7z"/><path d="m529.4 33.3h9.5l7.8 12.6 7.8-12.6h9.5v32.5h-9v-18.6l-8.3 12.7h-.2l-8.3-12.7v18.6h-8.8z"/><path d="m579.4 33.1h8.7l13.8 32.7h-9.7l-2.3-5.9h-12.6l-2.3 5.9h-9.4zm7.9 19.9-3.6-9.2-3.7 9.2z"/><path d="m603.7 33.3h8.4l13.4 17.2v-17.2h8.9v32.5h-7.8l-14-17.8v17.8h-8.9z"/><path d="m420.6 96.3c0-9.6 7.2-17 17.1-17 6.6 0 10.9 2.8 13.8 6.7l-6.8 5.2c-1.9-2.3-4-3.8-7.1-3.8-4.5 0-7.8 3.9-7.8 8.6v.1c0 4.9 3.2 8.7 7.8 8.7 3.4 0 5.4-1.6 7.3-3.9l6.8 4.8c-3.1 4.2-7.2 7.3-14.3 7.3-9.4.1-16.8-7-16.8-16.7z"/><path d="m465.4 79.7h8.7l13.8 32.7h-9.7l-2.3-5.9h-12.6l-2.3 5.9h-9.4zm7.9 19.9-3.6-9.2-3.7 9.2z"/><path d="m490.2 79.9h8.4l13.4 17.2v-17.2h8.9v32.5h-7.9l-13.9-17.8v17.8h-8.9z"/><path d="m523.9 96.3c0-9.6 7.2-17 17.1-17 6.6 0 10.9 2.8 13.8 6.7l-6.8 5.2c-1.9-2.3-4-3.8-7.1-3.8-4.5 0-7.8 3.9-7.8 8.6v.1c0 4.9 3.2 8.7 7.8 8.7 3.4 0 5.4-1.6 7.3-3.9l6.8 4.8c-3.1 4.2-7.2 7.3-14.3 7.3-9.3.1-16.8-7-16.8-16.7z"/><path d="m558 79.9h26.1v7.6h-17.2v5h15.6v7.1h-15.6v5.2h17.5v7.7h-26.4z"/><path d="m589 79.9h15.4c5 0 8.4 1.3 10.6 3.5 1.9 1.9 2.9 4.4 2.9 7.6v.1c0 5-2.6 8.3-6.7 10l7.8 11.3h-10.4l-6.5-9.8h-4v9.8h-9v-32.5zm15 15.6c3 0 4.8-1.5 4.8-3.9v-.1c0-2.6-1.9-3.9-4.9-3.9h-5.9v7.8h6z"/><path d="m634.2 96.3c0-9.6 7.2-17 17.1-17 6.6 0 10.9 2.8 13.8 6.7l-6.8 5.2c-1.9-2.3-4-3.8-7.1-3.8-4.5 0-7.8 3.9-7.8 8.6v.1c0 4.9 3.2 8.7 7.8 8.7 3.4 0 5.4-1.6 7.3-3.9l6.8 4.8c-3.1 4.2-7.2 7.3-14.3 7.3-9.3.1-16.8-7-16.8-16.7z"/><path d="m668.3 79.9h26.1v7.6h-17.2v5h15.6v7.1h-15.6v5.2h17.5v7.7h-26.4z"/><path d="m699.3 79.9h8.4l13.4 17.2v-17.2h8.9v32.5h-7.8l-13.9-17.8v17.8h-8.9v-32.5z"/><path d="m742.7 87.8h-9.7v-7.9h28.5v7.9h-9.8v24.6h-9z"/><path d="m765 79.9h26.1v7.6h-17.2v5h15.6v7.1h-15.6v5.2h17.5v7.7h-26.4z"/><path d="m796 79.9h15.4c5 0 8.4 1.3 10.6 3.5 1.9 1.9 2.9 4.4 2.9 7.6v.1c0 5-2.6 8.3-6.7 10l7.8 11.3h-10.4l-6.5-9.8h-4v9.8h-9v-32.5zm15 15.6c3 0 4.8-1.5 4.8-3.9v-.1c0-2.6-1.9-3.9-4.9-3.9h-5.9v7.8h6z"/><path d="m207 113.1v-3.4c-7.2-1-7.4-3.3-7-10l4.8-46.9 26.3 60.4h5.4l27.7-65.5c.4 15.6.8 29.5.8 49.7 0 9-1.3 12.2-8.8 12.4v3.4h32.9v-3.4c-5.5-.7-7.6-1.9-8.3-5.7-.1-.7-1.8-19.8-1.8-55.7 0-8.6 1.3-11.7 8.3-12v-3.4h-24.5l-25.7 59.5-24.4-59.5h-22.3v3.4c6.8.2 8.3 2.3 8.3 9.1l-6.4 57.7c-.9 5.2-4.1 6-10 6.6v3.4h24.7z"/><path d="m88.4 32.8v3.4c4.5.2 7 1.1 8.4 3.7 1.6 3.2 1.6 12.5 1.6 30.9 0 14.2-.3 23.8-6.6 30.5-4.7 5-11.5 7.5-19.3 7.5-14.4 0-20.8-9.3-20.8-26.6v-34.3c0-8.3 1-11.1 8.8-11.7v-3.4h-32.9v3.4c8 .8 8.4 3 8.4 11v33.9c0 22.2 12.8 33.8 35.4 33.8 22.4 0 33.1-10.3 34-33 .9-22.8-.3-36.2 1.5-40.9 1.1-3 3.6-4.1 8.4-4.4 2-.1 4.7 0 4.7 0 7.4.1 9.5 2.4 9.5 9.7v36.2-.4 16.8c0 7.8-1.4 10.5-8.8 10.8v3.4h32.3v-3.4c-7.3-.3-8.6-3-8.6-10.3v-19.3h5c37.6 0 36.5-25.7 36.5-25.7 0-13.4-9.3-21.8-27.6-21.8 0 0-27 .2-30.4.2s-39.5 0-39.5 0zm56 11.7c0-5.5 2.6-7.6 9.3-7.6 10.8 0 16.8 5.7 16.8 15.4 0 12.4-8.3 22.2-23.8 22.2-.8 0-1.6-.1-2.4-.1v-29.9z"/><path d="m339.3 107.1c-18.3 0-31.3-12.6-31.3-37.4 0-21.6 12.5-31.4 29.7-31.4 15 0 25.9 4.9 28.9 16.2h3.2v-17c-10.5-4.1-20.9-6.1-31.8-6.1-28.8 0-46.9 16.8-46.9 42.9 0 24.4 16.8 40.8 43.9 40.8 13.9 0 25.7-4 36.7-12.4l-5.1-8c-8.3 9.2-16.8 12.4-27.3 12.4z"/><path d="m392.8 33.5h2.8v78.8h-2.8z"/></g></svg>